<?xml version="1.0" standalone="no"?>
<!DOCTYPE svg PUBLIC "-//W3C//DTD SVG 20010904//EN"
 "http://www.w3.org/TR/2001/REC-SVG-20010904/DTD/svg10.dtd">
<svg version="1.0" xmlns="http://www.w3.org/2000/svg"
 width="1080.000000pt" height="1080.000000pt" viewBox="0 0 1080.000000 1080.000000"
 preserveAspectRatio="xMidYMid meet">

<g transform="translate(0.000000,1080.000000) scale(0.100000,-0.100000)"
fill="#000000" stroke="none">
<path d="M5115 9708 c-186 -14 -548 -65 -630 -87 -16 -5 -57 -14 -90 -21 -33
-7 -71 -16 -85 -20 -14 -4 -43 -12 -65 -18 -59 -16 -267 -81 -290 -91 -11 -5
-62 -25 -113 -45 -169 -66 -425 -188 -577 -276 -89 -52 -266 -165 -389 -250
-32 -22 -150 -113 -156 -120 -3 -3 -14 -13 -26 -21 -22 -14 -104 -84 -184
-154 -161 -143 -386 -383 -505 -539 -17 -22 -48 -62 -69 -90 -47 -60 -207
-305 -256 -391 -19 -33 -43 -73 -52 -90 -51 -88 -204 -407 -233 -485 -22 -58
-35 -91 -46 -112 -5 -10 -9 -25 -9 -33 0 -8 -4 -23 -10 -33 -8 -15 -67 -197
-85 -262 -3 -14 -11 -41 -16 -60 -115 -402 -177 -1028 -139 -1410 28 -279 59
-482 101 -660 11 -50 27 -120 36 -163 3 -15 9 -30 14 -33 5 -3 9 -14 9 -24 0
-19 90 -299 114 -354 7 -17 26 -62 41 -101 56 -140 154 -340 254 -520 42 -75
172 -276 223 -345 170 -229 232 -304 411 -493 120 -128 289 -284 397 -367 24
-19 58 -47 75 -62 16 -16 33 -28 37 -28 4 0 13 -6 20 -13 18 -18 236 -167 243
-167 4 0 27 -14 51 -31 142 -97 511 -282 742 -370 12 -5 32 -13 45 -19 24 -10
287 -94 352 -112 119 -32 157 -42 320 -78 367 -83 920 -103 1355 -49 141 18
445 79 580 118 19 5 46 13 60 16 65 18 247 77 262 85 10 6 25 10 33 10 8 0 34
9 58 19 23 10 61 26 84 35 153 57 548 258 665 337 31 22 60 39 63 39 11 0 268
181 344 243 156 126 200 166 346 312 175 175 334 357 452 519 67 93 230 343
276 426 37 66 164 321 197 395 53 118 70 158 70 167 0 5 9 28 20 50 11 23 20
50 20 59 0 10 5 21 10 24 6 3 10 15 10 26 0 10 4 27 9 37 10 19 49 138 62 190
5 17 14 49 20 70 6 20 15 56 20 80 5 23 13 61 18 85 102 464 130 858 91 1312
-13 146 -26 249 -39 310 -6 28 -18 91 -27 140 -41 239 -143 596 -205 717 -5
10 -9 25 -9 33 0 8 -4 23 -9 33 -10 17 -45 95 -76 167 -21 50 -124 256 -155
310 -111 195 -155 265 -277 445 -210 308 -610 713 -942 953 -95 69 -274 186
-361 238 -42 24 -89 52 -105 62 -33 19 -328 165 -385 190 -19 8 -60 25 -90 37
-30 12 -68 28 -85 35 -39 17 -230 84 -275 96 -19 6 -48 14 -65 19 -70 21 -113
32 -152 41 -24 5 -63 14 -88 19 -98 22 -135 29 -265 48 -382 59 -675 74 -975
50z m660 -58 c66 -5 149 -14 185 -19 36 -6 92 -14 125 -19 33 -5 132 -26 220
-47 161 -38 223 -51 283 -62 18 -3 35 -9 38 -14 3 -5 14 -9 25 -9 10 0 27 -4
37 -9 17 -10 124 -49 197 -72 22 -7 44 -17 49 -21 6 -4 18 -8 28 -8 10 0 26
-4 36 -10 9 -5 49 -24 87 -41 250 -110 411 -194 579 -303 44 -28 88 -55 97
-61 75 -45 311 -223 385 -290 6 -5 33 -28 60 -50 70 -57 350 -337 420 -420 32
-38 69 -81 81 -95 77 -89 273 -362 273 -379 0 -6 4 -11 9 -11 5 0 11 -8 15
-17 3 -10 24 -47 47 -83 99 -155 222 -399 311 -620 6 -14 14 -33 19 -42 5 -10
9 -27 9 -37 0 -11 5 -23 10 -26 6 -3 10 -14 10 -23 0 -17 44 -143 61 -174 5
-10 9 -25 9 -33 0 -8 4 -23 9 -33 14 -27 31 -87 31 -107 0 -10 4 -32 10 -49 9
-30 43 -169 61 -251 5 -22 14 -76 20 -120 6 -44 15 -109 20 -145 41 -287 41
-827 -1 -1105 -6 -38 -15 -101 -20 -140 -5 -38 -11 -79 -14 -90 -3 -11 -12
-54 -21 -95 -9 -41 -20 -86 -25 -100 -4 -14 -13 -50 -19 -80 -17 -81 -29 -122
-73 -250 -22 -63 -46 -137 -55 -165 -8 -27 -19 -60 -24 -72 -22 -56 -28 -71
-48 -115 -12 -26 -21 -50 -21 -52 0 -9 -140 -292 -181 -366 -76 -136 -98 -172
-197 -320 -76 -111 -137 -196 -153 -210 -3 -3 -18 -23 -35 -45 -16 -22 -38
-49 -49 -61 -11 -12 -40 -46 -65 -77 -55 -68 -340 -352 -435 -432 -38 -33 -81
-70 -95 -82 -70 -61 -348 -263 -397 -289 -15 -8 -57 -33 -93 -56 -101 -63
-340 -189 -440 -232 -25 -10 -67 -29 -95 -41 -27 -12 -68 -28 -90 -36 -22 -7
-44 -17 -50 -21 -5 -4 -17 -8 -27 -8 -10 0 -26 -4 -36 -9 -9 -5 -53 -21 -97
-36 -44 -14 -88 -30 -97 -35 -10 -6 -27 -10 -37 -10 -11 0 -22 -4 -25 -9 -3
-5 -20 -11 -38 -14 -60 -11 -122 -24 -243 -55 -66 -17 -140 -33 -165 -37 -59
-8 -170 -24 -245 -36 -101 -15 -393 -33 -530 -33 -150 1 -420 18 -515 33 -61
10 -144 22 -250 36 -48 7 -314 69 -366 85 -17 6 -40 10 -52 10 -11 0 -24 5
-27 10 -3 6 -15 10 -26 10 -10 0 -27 4 -37 10 -9 5 -66 26 -127 45 -60 20
-119 40 -130 44 -11 5 -63 26 -115 47 -176 69 -395 180 -590 299 -86 52 -278
181 -290 195 -3 3 -39 31 -80 62 -42 32 -84 65 -95 75 -11 10 -47 41 -80 68
-95 79 -349 331 -438 435 -45 52 -86 100 -92 106 -18 21 -40 49 -70 89 -16 22
-32 42 -35 45 -3 3 -37 50 -75 105 -38 55 -73 102 -77 103 -4 2 -8 8 -8 13 0
6 -16 36 -37 67 -70 110 -138 234 -223 409 -39 79 -70 145 -70 148 0 3 -9 27
-21 53 -12 26 -25 57 -30 70 -5 12 -13 32 -18 45 -5 12 -12 31 -14 42 -3 11
-27 85 -55 165 -57 168 -61 183 -102 352 -37 156 -49 212 -62 303 -5 39 -14
99 -19 135 -42 296 -42 797 0 1100 5 36 14 101 20 145 6 44 15 98 20 120 18
82 52 221 61 251 6 17 10 39 10 49 0 18 15 70 31 110 4 11 24 70 44 130 20 61
40 118 45 127 6 10 10 25 10 33 0 8 4 23 9 33 5 9 13 28 19 42 5 14 19 46 31
72 12 26 21 50 21 52 0 21 180 370 248 481 24 39 48 79 55 90 20 33 160 240
166 245 3 3 29 35 58 73 64 85 115 147 173 212 70 79 350 356 404 400 27 22
61 51 76 65 42 38 60 52 146 116 44 33 84 64 91 69 37 32 297 198 378 242 22
11 65 35 95 52 74 42 191 98 325 156 17 7 50 22 75 33 25 11 79 31 120 45 173
59 256 89 272 97 10 6 25 10 35 10 9 0 30 4 47 9 17 5 54 14 81 20 28 5 91 20
140 32 130 31 162 38 235 50 347 55 694 67 1065 39z"/>
<path d="M2978 8068 c-2 -260 1 -479 6 -485 7 -10 386 -13 1837 -13 1314 0
1829 -3 1829 -11 0 -12 -17 -32 -149 -180 -46 -52 -114 -128 -150 -169 -36
-41 -122 -138 -191 -215 -148 -165 -369 -413 -450 -505 -115 -130 -335 -377
-405 -455 -40 -44 -85 -96 -101 -115 -16 -19 -38 -44 -50 -55 -12 -11 -55 -59
-96 -106 -41 -47 -88 -101 -105 -120 -17 -19 -52 -59 -79 -90 -27 -30 -80 -90
-119 -134 -38 -43 -78 -87 -88 -98 -22 -26 -122 -139 -160 -181 -15 -17 -45
-49 -66 -71 -20 -22 -50 -56 -65 -75 -16 -19 -49 -57 -75 -85 -25 -27 -78 -86
-116 -130 -39 -44 -77 -87 -85 -95 -9 -8 -42 -46 -75 -85 -33 -38 -67 -77 -75
-85 -8 -8 -47 -51 -85 -95 -39 -44 -149 -168 -245 -275 -96 -108 -220 -247
-275 -310 -55 -62 -105 -118 -110 -124 -86 -92 -176 -204 -199 -245 -52 -97
-56 -128 -56 -480 0 -307 1 -328 21 -385 45 -125 147 -239 269 -299 l65 -32
2245 0 2245 0 3 469 c1 338 -1 473 -9 482 -10 12 -308 14 -1840 14 -1266 0
-1829 3 -1829 10 0 6 10 21 23 34 12 12 49 54 82 91 33 38 121 137 195 220 74
83 158 178 187 210 28 33 62 72 75 86 12 14 38 43 57 65 19 21 53 59 75 84 23
25 75 83 116 130 41 46 98 109 125 140 116 129 192 215 220 248 17 20 39 45
50 56 11 12 52 57 90 101 39 44 72 82 75 85 3 3 77 86 165 185 88 99 165 185
170 191 6 6 37 41 70 79 33 38 81 91 106 119 25 28 61 69 80 91 19 22 57 65
85 95 28 30 109 120 179 200 237 268 345 390 355 400 3 3 77 86 165 185 88 99
165 185 170 191 6 6 37 41 70 79 33 37 71 80 85 95 14 15 52 58 85 96 33 38
122 138 199 224 189 211 188 210 217 250 15 19 37 55 51 80 49 91 53 122 53
465 0 313 -1 322 -24 385 -48 131 -141 235 -268 300 l-68 35 -2242 3 -2243 2
-2 -472z"/>
</g>
</svg>
